<?xml version="1.0" encoding="UTF-8"?><!DOCTYPE svg PUBLIC "-//W3C//DTD SVG 1.1//EN" "http://www.w3.org/Graphics/SVG/1.1/DTD/svg11.dtd"><svg xmlns="http://www.w3.org/2000/svg" xmlns:xlink="http://www.w3.org/1999/xlink" version="1.1" width="24" height="24" viewBox="0 0 24 24"><path d="M6,11V9H8A6,6 0 0,1 14,3C14.95,3 15.85,3.22 16.64,3.61L16.35,5.76C15.69,5.28 14.88,5 14,5A4,4 0 0,0 10,9H16V11H10V13H16V15H10A4,4 0 0,0 14,19C14.88,19 15.69,18.72 16.35,18.24L16.64,20.39C15.85,20.78 14.95,21 14,21A6,6 0 0,1 8,15H6V13H8V11H6Z" /></svg>