<?xml version="1.0" encoding="UTF-8"?><!DOCTYPE svg PUBLIC "-//W3C//DTD SVG 1.1//EN" "http://www.w3.org/Graphics/SVG/1.1/DTD/svg11.dtd"><svg xmlns="http://www.w3.org/2000/svg" xmlns:xlink="http://www.w3.org/1999/xlink" version="1.1" width="24" height="24" viewBox="0 0 24 24"><path d="M9,22H7V16H5V22H3V14H2V9A2,2 0 0,1 4,7H8A2,2 0 0,1 10,9V14H9V22M6,2A2,2 0 0,1 8,4A2,2 0 0,1 6,6C4.89,6 4,5.1 4,4C4,2.89 4.89,2 6,2M20,22H18V18H16V22H14V18H12L15,12V9L13.5,14H12L14,7H20L22,14H20.5L19,9V12L22,18H20V22M17,2A2,2 0 0,1 19,4A2,2 0 0,1 17,6A2,2 0 0,1 15,4C15,2.89 15.9,2 17,2Z" /></svg>