<?xml version="1.0" encoding="utf-8"?>
<!-- Generator: Adobe Illustrator 16.0.0, SVG Export Plug-In . SVG Version: 6.00 Build 0)  -->
<!DOCTYPE svg PUBLIC "-//W3C//DTD SVG 1.1//EN" "http://www.w3.org/Graphics/SVG/1.1/DTD/svg11.dtd">
<svg version="1.1" id="Layer_1" xmlns="http://www.w3.org/2000/svg" xmlns:xlink="http://www.w3.org/1999/xlink" x="0px" y="0px"
	 width="200px" height="200px" viewBox="0 0 300 300" enable-background="new 0 0 300 300" xml:space="preserve">
<g>
	<polygon opacity="0.1" fill="#211F1F" points="150.004,5.577 23.24,78.764 23.24,225.141 150.004,298.319 276.76,225.141 
		276.76,78.764 	"/>
	<g>
		<path fill="#FFFFFF" d="M150.004,1.681L23.24,74.868v146.376l126.764,73.181l126.756-73.181V74.868L150.004,1.681z
			 M257.746,210.264l-107.742,62.207L42.255,210.264V85.849l107.749-62.207l107.742,62.207V210.264z"/>
		<polygon fill="#FFFFFF" points="150.004,148.055 61.269,96.822 61.269,199.282 150.004,250.517 238.734,199.282 238.734,96.822 		
			"/>
		<polygon fill="#F5F6F6" points="61.269,96.822 150.004,148.055 150.004,250.517 61.269,199.282 		"/>
	</g>
</g>
</svg>
