<?xml version="1.0" encoding="UTF-8"?><!DOCTYPE svg PUBLIC "-//W3C//DTD SVG 1.1//EN" "http://www.w3.org/Graphics/SVG/1.1/DTD/svg11.dtd"><svg xmlns="http://www.w3.org/2000/svg" xmlns:xlink="http://www.w3.org/1999/xlink" version="1.1" width="24" height="24" viewBox="0 0 24 24"><path d="M2,16H5.97C7.31,13.72 10.16,12 12.82,12C13.66,12 14.4,12.17 15,12.5V2H17V16H22V18H16.03C14.69,20.28 11.84,22 9.18,22C6.5,22 4.92,20.28 5.25,18H2V16M11.73,15C10.35,15 8.9,15.9 8.5,17C8.1,18.1 8.89,19 10.27,19C11.65,19 13.1,18.1 13.5,17C13.9,15.9 13.11,15 11.73,15Z" /></svg>