<?xml version="1.0" encoding="UTF-8"?><!DOCTYPE svg PUBLIC "-//W3C//DTD SVG 1.1//EN" "http://www.w3.org/Graphics/SVG/1.1/DTD/svg11.dtd"><svg xmlns="http://www.w3.org/2000/svg" xmlns:xlink="http://www.w3.org/1999/xlink" version="1.1" width="24" height="24" viewBox="0 0 24 24"><path d="M12.73,10C11.35,10 9.9,10.9 9.5,12C9.1,13.1 9.89,14 11.27,14C12.65,14 14.1,13.1 14.5,12C14.9,10.9 14.11,10 12.73,10M2,11H6.97C8.31,8.72 11.16,7 13.82,7C16.5,7 18.08,8.72 17.75,11H22V13H17.03C15.69,15.28 12.84,17 10.18,17C7.5,17 5.92,15.28 6.25,13H2V11Z" /></svg>