<?xml version="1.0" encoding="UTF-8"?><!DOCTYPE svg PUBLIC "-//W3C//DTD SVG 1.1//EN" "http://www.w3.org/Graphics/SVG/1.1/DTD/svg11.dtd"><svg xmlns="http://www.w3.org/2000/svg" xmlns:xlink="http://www.w3.org/1999/xlink" version="1.1" width="24" height="24" viewBox="0 0 24 24"><path d="M2,16H5.97C7.31,13.72 10.16,12 12.82,12C13.66,12 14.4,12.17 15,12.5V2H17C17,2 17,4 19,6C22,9 20.5,12 20.5,12C20.5,12 21,10 19,8C18.15,7.15 17.3,6.66 17.06,6.53C17.2,7.26 17.63,8.63 19,10C22,13 20.5,16 20.5,16H22V18H16.03C14.69,20.28 11.84,22 9.18,22C6.5,22 4.93,20.28 5.25,18H2V16M17,16H20.5C20.5,16 21,14 19,12C18,11 17,10.5 17,10.5V16Z" /></svg>